# xmcd
#
# Track frame offsets:
#	150
#	16440
#	29980
#	45435
#	63060
#	74822
#	88874
#	104467
#	121904
#	137257
#	152252
#	168759
#	185687
#	201145
#	215277
#	232207
#
# Disc length: 3315 seconds
#
# Revision: 0
# Processed by: cddbd v1.5.2PL0 Copyright (c) Steve Scherf et al.
# Submitted via: dBpowerAMP V4.0
#
DISCID=de0cf110
DTITLE=João Mineiro and Marciano - Série One
DYEAR=2009
DGENRE=Sertanejo
TTITLE0=Se Eu Não Puder Te Esqueçer
TTITLE1=Aline
TTITLE2=Impossível Acreditar Que Perdí Você
TTITLE3=Romaria
TTITLE4=Vestido De Noiva
TTITLE5=A Pretendida
TTITLE6=Se Eu pudesse Conversar Com Deus
TTITLE7=Amor, Tem Que Ser Amor
TTITLE8=Tudo Passará
TTITLE9=Cilada
TTITLE10=Seu Amor Ainda É tudo
TTITLE11=Eu Daría Minha Vida
TTITLE12=Viola Está Chorando
TTITLE13=Ainda Ontem Chorei De Saudade
TTITLE14=Amor Clandestino
TTITLE15=Como É Que Eu Posso Ser Feliz, Sem Você
EXTD=
EXTT0=
EXTT1=
EXTT2=
EXTT3=
EXTT4=
EXTT5=
EXTT6=
EXTT7=
EXTT8=
EXTT9=
EXTT10=
EXTT11=
EXTT12=
EXTT13=
EXTT14=
EXTT15=
PLAYORDER=
